<?xml version="1.0" encoding="iso-8859-1"?>
<!-- Uploaded to: SVG Repo, www.svgrepo.com, Generator: SVG Repo Mixer Tools -->
<svg fill="#000000" height="800px" width="800px" version="1.1" id="Layer_1" xmlns="http://www.w3.org/2000/svg" xmlns:xlink="http://www.w3.org/1999/xlink" 
	 viewBox="0 0 512 512" xml:space="preserve">
<g>
	<g>
		<path d="M426.667,362.667c-9.882,0-19.238,2.241-27.592,6.238l-54.086-54.086c11.169-16.863,17.679-37.079,17.679-58.818
			s-6.51-41.956-17.679-58.818l38.343-38.343c12.703,7.505,27.511,11.828,43.336,11.828c47.131,0,85.333-38.202,85.333-85.333
			S473.798,0,426.667,0s-85.333,38.202-85.333,85.333c0,15.825,4.323,30.632,11.828,43.336l-38.343,38.343
			c-16.863-11.169-37.079-17.679-58.818-17.679s-41.956,6.51-58.818,17.679l-75.42-75.42C125.759,83.238,128,73.882,128,64
			c0-35.355-28.645-64-64-64S0,28.645,0,64s28.645,64,64,64c9.882,0,19.238-2.241,27.592-6.238l75.42,75.42
			c-11.169,16.862-17.679,37.079-17.679,58.818s6.51,41.956,17.679,58.818l-38.343,38.343
			c-12.703-7.505-27.511-11.828-43.336-11.828C38.202,341.333,0,379.535,0,426.667S38.202,512,85.333,512
			s85.333-38.202,85.333-85.333c0-15.825-4.323-30.632-11.828-43.336l38.343-38.343c16.863,11.169,37.079,17.679,58.818,17.679
			s41.956-6.51,58.818-17.679l54.086,54.086c-3.997,8.354-6.238,17.71-6.238,27.592c0,35.355,28.645,64,64,64s64-28.645,64-64
			S462.022,362.667,426.667,362.667z M426.667,42.667c23.567,0,42.667,19.099,42.667,42.667S450.234,128,426.667,128
			c-11.597,0-22.106-4.632-29.796-12.138c-0.12-0.126-0.224-0.261-0.348-0.385s-0.259-0.228-0.385-0.348
			C388.632,107.44,384,96.931,384,85.333C384,61.766,403.099,42.667,426.667,42.667z M42.667,64
			c0-11.791,9.542-21.333,21.333-21.333S85.333,52.209,85.333,64c0,5.876-2.372,11.192-6.209,15.049
			c-0.013,0.013-0.027,0.023-0.04,0.036s-0.023,0.027-0.036,0.04c-3.856,3.837-9.172,6.209-15.049,6.209
			C52.209,85.333,42.667,75.791,42.667,64z M85.333,469.333c-23.567,0-42.667-19.099-42.667-42.667S61.766,384,85.333,384
			c11.553,0,22.026,4.598,29.708,12.054c0.147,0.156,0.277,0.322,0.429,0.475s0.319,0.282,0.475,0.429
			c7.456,7.682,12.054,18.155,12.054,29.708C128,450.234,108.901,469.333,85.333,469.333z M210.798,301.303
			c-0.017-0.017-0.031-0.036-0.048-0.053s-0.036-0.031-0.053-0.048C199.145,289.624,192,273.646,192,256c0-35.343,28.657-64,64-64
			c17.602,0,33.543,7.111,45.114,18.613c0.046,0.046,0.083,0.097,0.129,0.143s0.097,0.084,0.143,0.129
			C312.889,222.457,320,238.398,320,256c0,17.588-7.1,33.516-18.585,45.085c-0.056,0.055-0.118,0.101-0.173,0.157
			s-0.102,0.117-0.157,0.173C289.516,312.9,273.588,320,256,320C238.354,320,222.376,312.855,210.798,301.303z M426.667,448
			c-11.791,0-21.333-9.542-21.333-21.333c0-5.876,2.372-11.192,6.209-15.049c0.013-0.013,0.027-0.023,0.04-0.036
			s0.023-0.027,0.036-0.04c3.856-3.837,9.172-6.209,15.049-6.209c11.791,0,21.333,9.542,21.333,21.333S438.458,448,426.667,448z"/>
	</g>
</g>
</svg>